<svg xmlns="http://www.w3.org/2000/svg" viewBox="0 0 64 64" fill="none">
  <defs>
    <linearGradient id="bg" x1="8" y1="8" x2="56" y2="56" gradientUnits="userSpaceOnUse">
      <stop stop-color="#2F5E8B"/>
      <stop offset="1" stop-color="#163657"/>
    </linearGradient>
  </defs>
  <rect x="8" y="8" width="48" height="48" rx="12" fill="url(#bg)"/>
  <rect x="8.75" y="8.75" width="46.5" height="46.5" rx="11.25" stroke="#FCDAB7" stroke-opacity=".35" stroke-width="1.5"/>
  <path d="M24 18v28M40 18v28M18 24h28M18 40h28" stroke="#D6E8F4" stroke-opacity=".45" stroke-width="2.2" stroke-linecap="round"/>
  <path d="M19.5 18.5 26.5 25.5M26.5 18.5l-7 7" stroke="#FCDAB7" stroke-width="3.2" stroke-linecap="round"/>
  <circle cx="32" cy="22" r="4.25" stroke="#7EC8E3" stroke-width="3"/>
  <path d="M37.5 18.5 44.5 25.5M44.5 18.5l-7 7" stroke="#FCDAB7" stroke-width="3.2" stroke-linecap="round"/>
  <circle cx="22" cy="32" r="4.25" stroke="#7EC8E3" stroke-width="3"/>
  <path d="M28.5 28.5 35.5 35.5M35.5 28.5l-7 7" stroke="#FCDAB7" stroke-width="3.2" stroke-linecap="round"/>
  <circle cx="42" cy="32" r="4.25" stroke="#7EC8E3" stroke-width="3"/>
  <circle cx="22" cy="42" r="4.25" stroke="#7EC8E3" stroke-width="3"/>
  <path d="M28.5 38.5 35.5 45.5M35.5 38.5l-7 7" stroke="#FCDAB7" stroke-width="3.2" stroke-linecap="round"/>
  <circle cx="42" cy="42" r="4.25" stroke="#7EC8E3" stroke-width="3"/>
</svg>
